# xmcd
#
# Track frame offsets: 
#        182
#        23090
#        50252
#        70202
#        88340
#        113722
#        135515
#        157090
#        174902
#        196490
#        222790
#        249677
#
# Disc length: 3769 seconds
#
# Revision: 9
# Processed by: cddbd v1.5.2PL0 Copyright (c) Steve Scherf et al.
# Submitted via: ExactAudioCopyFreeDBPlugin 1.0
#
DISCID=a50eb70c
DTITLE=Various Artist - Smooth Grooves:  A Sensual Collection [Rhino]
DYEAR=1995
DGENRE=SMB
TTITLE0=Chapter 8 - I Just Wanna Be Your Girl (ft Anita Baker)
TTITLE1=Alicia Myers - If You Play Your Cards Right
TTITLE2=Larry Graham - Just Be My Lady
TTITLE3=Stacy Lattisaw - Let Me Be Your Angel
TTITLE4=Atlantic Starr - Am I Dreaming
TTITLE5=Stephanie Mills - I Have Learned to Respect the Power of Love
TTITLE6=Bobby Caldwell - What You Won't Do for Love
TTITLE7=Force M.D.'s - Tender Love (extended vocal remix)
TTITLE8=Cameo - Why Have I Lost You
TTITLE9=Teddy Pendergrass - Come Go with Me
TTITLE10=Shirley Murdock - As We Lay
TTITLE11=Rick James - Fire and Desire (ft Teena Marie)
EXTD=YEAR: 1995
EXTT0=
EXTT1=
EXTT2=
EXTT3=
EXTT4=
EXTT5=
EXTT6=
EXTT7=
EXTT8=
EXTT9=
EXTT10=
EXTT11=
PLAYORDER=
